<svg width="30" height="22" viewBox="0 0 30 22" fill="none" xmlns="http://www.w3.org/2000/svg">
<path d="M11.7694 0.388207C11.2518 -0.129402 10.4128 -0.129402 9.89524 0.388207L0.391105 9.89234C0.358807 9.92464 0.328164 9.95859 0.299178 9.9942C0.290068 10.005 0.282615 10.0166 0.273505 10.0282C0.256113 10.0513 0.238721 10.0737 0.222158 10.0977C0.210563 10.1151 0.200625 10.1333 0.189859 10.1507C0.178264 10.1698 0.16667 10.1888 0.155903 10.2087C0.145137 10.2286 0.136027 10.2485 0.126917 10.2692C0.117808 10.2882 0.108698 10.3064 0.100416 10.3255C0.091306 10.347 0.0846807 10.3685 0.0772271 10.3901C0.0706017 10.4091 0.0631484 10.4282 0.0573511 10.4472C0.0498976 10.4712 0.0449284 10.4952 0.0391312 10.5184C0.0349903 10.5367 0.030021 10.554 0.0258801 10.5723C0.0192547 10.6037 0.015114 10.6352 0.0118013 10.6667C0.0101449 10.6783 0.00848879 10.689 0.00683244 10.7006C-0.00227748 10.7893 -0.00227748 10.8787 0.00683244 10.9673C0.00766061 10.9723 0.00848869 10.9772 0.00931686 10.9822C0.0134577 11.0203 0.0192549 11.0584 0.0267085 11.0957C0.029193 11.1064 0.0325055 11.1172 0.0349901 11.128C0.0424436 11.1594 0.0498973 11.1909 0.0590072 11.2216C0.0623199 11.2323 0.0664607 11.2431 0.0706016 11.2547C0.0805397 11.2845 0.0913061 11.3151 0.103729 11.345C0.10787 11.3541 0.112011 11.3623 0.116151 11.3715C0.13023 11.4021 0.144309 11.4327 0.160045 11.4626C0.163357 11.4684 0.167498 11.4742 0.170811 11.4799C0.188202 11.5114 0.20725 11.5429 0.227127 11.5735C0.228783 11.576 0.23044 11.5785 0.232096 11.581C0.277646 11.6481 0.329821 11.7118 0.388621 11.7706L9.89689 21.2789C10.1553 21.5373 10.4948 21.6673 10.8336 21.6673C11.1723 21.6673 11.5118 21.5381 11.7702 21.2789C12.2878 20.7613 12.2878 19.9224 11.7702 19.4048L4.5237 12.1582H28.6749C29.407 12.1582 30 11.5653 30 10.8331C30 10.101 29.407 9.50806 28.6749 9.50806H4.5237L11.7694 2.26154C12.287 1.74476 12.287 0.905816 11.7694 0.388207Z" fill="black"/>
</svg>
