<svg width="235" height="48" viewBox="0 0 235 48" fill="none" xmlns="http://www.w3.org/2000/svg">
<path d="M5.93945 1.64844L15.7539 30.4082H16.1445L25.959 1.64844H31.7695L19.0254 37H12.8242L0.128906 1.64844H5.93945ZM35.8223 37V10.4863H41.0469V37H35.8223ZM35.1387 3.30859C35.1631 1.59961 36.6523 0.232422 38.459 0.232422C40.2412 0.232422 41.7305 1.59961 41.7305 3.30859C41.7305 5.01758 40.2412 6.40918 38.459 6.38477C36.6523 6.40918 35.1631 5.01758 35.1387 3.30859ZM58.8203 37.5371C51.0078 37.5371 46.1982 32.1416 46.2227 23.9141C46.1982 15.7598 51.0811 10.1445 58.4785 10.1445C64.5088 10.1445 70.2461 13.8799 70.2461 23.4746V25.3301H51.3984C51.5449 30.3838 54.5234 33.2402 58.8691 33.2402C61.8232 33.2402 63.752 31.9707 64.6309 30.3594H69.9043C68.7324 34.6562 64.6553 37.5371 58.8203 37.5371ZM51.4229 21.4238H65.1191C65.1191 17.3955 62.5068 14.417 58.5273 14.4414C54.3525 14.417 51.6426 17.6885 51.4229 21.4238ZM81.0371 37L73.2734 10.4863H78.6445L83.8203 29.9199H84.1133L89.2891 10.4863H94.6602L99.7871 29.8223H100.08L105.207 10.4863H110.578L102.814 37H97.4922L92.1211 17.9082H91.7305L86.4082 37H81.0371ZM115.314 37V1.64844H120.686V32.3613H136.652V37H115.314ZM141.73 37V10.4863H146.955V37H141.73ZM141.047 3.30859C141.071 1.59961 142.561 0.232422 144.367 0.232422C146.149 0.232422 147.639 1.59961 147.639 3.30859C147.639 5.01758 146.149 6.40918 144.367 6.38477C142.561 6.40918 141.071 5.01758 141.047 3.30859ZM158.527 21.2773V37H153.303V10.4863H158.332V14.832H158.625C159.87 11.9756 162.482 10.1445 166.438 10.1445C171.882 10.1445 175.495 13.5869 175.471 20.1543V37H170.295V20.7891C170.271 16.9316 168.195 14.6367 164.68 14.6367C161.091 14.6367 158.527 17.0537 158.527 21.2773ZM192.951 47.498C186.262 47.498 181.843 44.5439 181.379 39.5879H186.701C187.214 42.1025 189.558 43.3232 193 43.2988C197.15 43.3232 199.763 41.5166 199.787 37.3906V32.166H199.445C198.518 33.875 196.613 36.6094 191.73 36.6094C185.48 36.6094 180.646 31.9463 180.646 23.4746C180.646 15.0029 185.407 10.1445 191.779 10.1445C196.711 10.1445 198.518 13.123 199.494 14.7832H199.836V10.4863H204.914V37.5859C204.938 44.3975 199.787 47.498 192.951 47.498ZM185.969 23.5723C185.944 28.7725 188.337 32.2881 192.902 32.3125C197.346 32.2881 199.836 29.041 199.836 23.5723C199.836 18.2012 197.395 14.5635 192.902 14.5879C188.288 14.5635 185.944 18.4941 185.969 23.5723ZM222.492 37.5371C214.973 37.5371 210.065 32.0684 210.09 23.8652C210.065 15.6133 214.973 10.1445 222.492 10.1445C229.963 10.1445 234.846 15.6133 234.846 23.8652C234.846 32.0684 229.963 37.5371 222.492 37.5371ZM215.314 23.8652C215.314 28.9189 217.634 33.1914 222.492 33.1914C227.277 33.1914 229.572 28.9189 229.572 23.8652C229.572 18.7871 227.277 14.4658 222.492 14.4414C217.634 14.4658 215.314 18.7871 215.314 23.8652Z" fill="white"/>
</svg>
