<svg width="14" height="14" viewBox="0 0 14 14" fill="none" xmlns="http://www.w3.org/2000/svg">
<path d="M13.683 6.4793L0.864958 0.0616166C0.764494 0.011306 0.651648 -0.00885246 0.540008 0.00356875C0.428368 0.01599 0.322693 0.0604612 0.235708 0.131628C0.152638 0.201343 0.0906346 0.292879 0.0566685 0.395945C0.0227024 0.499011 0.0181203 0.609522 0.0434371 0.715053L1.58743 6.41512H8.17708V7.58197H1.58743L0.0201316 13.2645C-0.00362467 13.3527 -0.00639775 13.4451 0.0120354 13.5345C0.0304685 13.6239 0.0695937 13.7078 0.126265 13.7793C0.182935 13.8508 0.255571 13.908 0.33833 13.9462C0.42109 13.9845 0.511664 14.0028 0.602771 13.9997C0.693978 13.9991 0.783784 13.9771 0.864958 13.9355L13.683 7.51779C13.7785 7.46883 13.8586 7.39445 13.9145 7.30283C13.9704 7.21122 14 7.10592 14 6.99855C14 6.89117 13.9704 6.78587 13.9145 6.69426C13.8586 6.60264 13.7785 6.52826 13.683 6.4793Z" fill="white"/>
</svg>
