<svg width="12" height="12" viewBox="0 0 12 12" fill="none" xmlns="http://www.w3.org/2000/svg">
<g clip-path="url(#clip0_10_255)">
<path d="M6.5 1.8723C6.5 1.63657 6.4364 1.2501 6.08285 1.07212C5.70755 0.883174 5.35815 1.09677 5.18115 1.25579L2.4733 3.71858H1.5C0.947715 3.71858 0.5 4.1663 0.5 4.71858L0.500005 7.3124C0.500005 7.86465 0.94772 8.3124 1.50001 8.3124H2.475L5.18115 10.7445C5.35875 10.904 5.708 11.1165 6.0828 10.9277C6.43585 10.7499 6.5 10.3643 6.5 10.128V1.8723Z" fill="white"/>
<path d="M8.66804 1.89801L8.54764 1.86441C8.28169 1.79019 8.00589 1.94564 7.93164 2.21163L7.86449 2.45243C7.79024 2.71841 7.94569 2.9942 8.21169 3.06842L8.33209 3.10201C9.47759 3.42166 10.3751 4.57306 10.3751 6.00003C10.3751 7.42698 9.47759 8.57838 8.33209 8.89803L8.21169 8.93158C7.94569 9.00583 7.79024 9.28163 7.86449 9.54758L7.93164 9.78838C8.00589 10.0544 8.28169 10.2098 8.54764 10.1356L8.66804 10.102C10.3979 9.61933 11.6251 7.94088 11.6251 6.00003C11.6251 4.05914 10.3979 2.38071 8.66804 1.89801Z" fill="white"/>
<path d="M8.17897 3.90119L8.05917 3.86538C7.79462 3.78628 7.51602 3.93664 7.43692 4.20121L7.36532 4.44073C7.28622 4.7053 7.43657 4.9839 7.70112 5.06299L7.82092 5.09879C8.08752 5.17854 8.37492 5.50599 8.37492 5.99999C8.37492 6.49404 8.08752 6.82149 7.82092 6.90119L7.70112 6.93699C7.43657 7.01609 7.28622 7.29469 7.36532 7.55924L7.43692 7.79879C7.51602 8.06334 7.79462 8.21369 8.05917 8.13459L8.17897 8.09879C9.06247 7.83464 9.62492 6.94934 9.62492 5.99999C9.62492 5.05069 9.06247 4.16533 8.17897 3.90119Z" fill="white"/>
</g>
<defs>
<clipPath id="clip0_10_255">
<rect width="12" height="12" fill="white"/>
</clipPath>
</defs>
</svg>
